<!-- icon666.com - MILLIONS OF FREE VECTOR ICONS --><svg clip-rule="evenodd" fill-rule="evenodd" image-rendering="optimizeQuality" shape-rendering="geometricPrecision" text-rendering="geometricPrecision" viewBox="0 0 173.397 173.397" xmlns="http://www.w3.org/2000/svg"><g id="Layer_x0020_1"><circle cx="86.699" cy="86.699" fill="#db4437" r="84.667"></circle><g id="_411102152" fill="#fff"><path id="_411104120" d="m49.2738 79.509-8.5192.0002c0-25.3747 20.5681-45.9446 45.9431-45.9446 25.3749 0 45.943 20.5699 45.943 45.9445l-8.5192-.0001c0-20.6695-16.754-37.4251-37.4238-37.4251-20.6699 0-37.4239 16.7556-37.4239 37.4251z"></path><path id="_411102800" d="m40.8329 79.2053h8.3663c1.1716 0 2.1301.9587 2.1301 2.1303v26.7702c0 1.1716-.9586 2.1302-2.1301 2.1302h-8.3663c-1.1714 0-2.1301-.9584-2.1301-2.1302v-26.7702c0-1.1718.9585-2.1303 2.1301-2.1303z"></path><path id="_411103280" d="m124.198 79.2053h8.3663c1.1716 0 2.1301.9587 2.1301 2.1303v26.7702c0 1.1716-.9586 2.1302-2.1301 2.1302h-8.3663c-1.1714 0-2.1302-.9584-2.1302-2.1302v-26.7702c0-1.1718.9586-2.1303 2.1302-2.1303z"></path><path id="_411102752" d="m134.09 103.392v-17.3428h4.3196c1.4949 0 2.7179 1.2231 2.7179 2.7179v11.9069c0 1.4949-1.2231 2.718-2.7179 2.718z"></path><path id="_411103040" d="m39.3075 103.392v-17.3428h-4.3195c-1.4948 0-2.7179 1.2231-2.7179 2.7179v11.9069c0 1.4949 1.223 2.718 2.7179 2.718z"></path><path id="_411103112" d="m46.1346 107.686c.3519.6031.7098 1.2024 1.068 1.8017 4.3191 7.2377 9.6399 12.7583 15.7525 16.4909 6.1347 3.7461 13.0885 5.7042 20.6466 5.8014l-.0495 4.2169c-8.3365-.1073-16.0144-2.2718-22.7965-6.4133-6.6954-4.0885-12.4971-10.0913-17.1747-17.9297-.3656-.6117-.7421-1.2195-1.101-1.8346z" fill-rule="nonzero"></path><path id="_411102368" d="m82.3674 130.672 12.0094-2.4727c1.2875-.2651 2.4413.764 2.4413 1.6975v8.1957c0 .9336-1.1539 1.9626-2.4413 1.6975l-12.0094-2.4726z"></path><path id="_411102320" d="m53.7484 82.2645v24.9123h4.8764c.5443 0 .9897-.4453.9897-.9897v-22.933c0-.5443-.4454-.9896-.9897-.9896z"></path><path id="_411102032" d="m119.649 82.2645v24.9123h-4.8764c-.5443 0-.9897-.4453-.9897-.9897v-22.933c0-.5443.4454-.9896.9897-.9896z"></path></g></g></svg>