<!-- icon666.com - MILLIONS OF FREE VECTOR ICONS --><svg clip-rule="evenodd" fill-rule="evenodd" image-rendering="optimizeQuality" shape-rendering="geometricPrecision" text-rendering="geometricPrecision" viewBox="0 0 1706.66 1706.66" xmlns="http://www.w3.org/2000/svg" xmlns:xodm="http://www.corel.com/coreldraw/odm/2003"><g id="Layer_x0020_1"><path d="m919 1447.91c-36.1 0-72.75-17.2-105.69-50.13l-186.83-186.83c-18.64-18.63 9.68-46.91 28.28-28.29l186.83 186.83c118.79 118.79 226.52-70.88 148.59-148.59l-243.5-242.81c-11.74-15.68-33.61-25.8-55.74-25.8h-383.35c-26.33 0-26.33-40 0-40h383.35c34.26 0 67.37 15.54 86.81 40.64l240.66 239.69c38.7 38.6 48.1 98.6 27.93 154.06h335.65c80 0 145.06 65.08 145.06 145.05 0 79.96-65.08 145.04-145.08 145.04h-530.94c-194.91 0-158.16-8.75-286.95-137.54l-141.98-141.98h-114.5c-26.33 0-26.33-40 0-40h122.78c5.31 0 10.39 2.11 14.14 5.86l206.26 208.88c60.12 64.79 60.12 64.79 200.26 64.79h530.95c57.93 0 105.05-47.14 105.05-105.05s-47.14-105.05-105.05-105.05h-356.28c-25.5 36.75-63.74 61.22-106.7 61.22z" fill="#4b6274"></path><path d="m307.6 1427.12h-287.58c-11.04 0-20-8.97-20-20v-544.72c0-11.04 8.96-20 20-20h287.58c11.04 0 20 8.96 20 20v544.72c0 11.04-8.96 20-20 20zm-267.58-40h247.58v-504.71h-247.58z" fill="#e2725a"></path><path d="m163.81 1312.63c-83.79 0-83.8-127.34 0-127.34 83.79 0 83.81 127.34 0 127.34zm0-87.33c-31.16 0-31.14 47.32 0 47.32 31.16 0 31.17-47.32 0-47.32z" fill="#4b6274"></path><path d="m1210.07 822.13c-140.98 0-255.69-114.69-255.69-255.69 0-140.98 114.7-255.67 255.69-255.67 140.98 0 255.69 114.69 255.69 255.67 0 141-114.7 255.69-255.69 255.69zm0-471.36c-118.93 0-215.67 96.75-215.67 215.67 0 118.93 96.75 215.69 215.67 215.69 118.93 0 215.67-96.76 215.67-215.69s-96.75-215.67-215.67-215.67z" fill="#4b6274"></path><g fill="#e2725a"><path d="m1159.32 650.7c-16.21 0-26.15-19.12-15.68-32.39l46.41-58.8v-112.29c0-26.33 40-26.33 40 0 0 25.74 4.2 120.86-4.32 131.62l-50.72 64.25c-3.93 5.02-9.78 7.61-15.69 7.61z"></path><path d="m1277.65 1063.03h-135.17c-11.04 0-20-8.97-20-20v-120.54c-36.1-8.83-70.34-23.03-102.21-42.37l-85.24 85.26c-7.82 7.8-20.48 7.81-28.3 0l-95.57-95.59c-7.82-7.82-7.82-20.47 0-28.28l85.22-85.23c-19.33-31.85-33.54-66.11-42.37-102.23l-120.5-.01c-11.04 0-20-8.96-20-20v-135.18c0-11.04 8.96-20 20-20h120.51c8.83-36.1 23.04-70.36 42.39-102.22l-85.24-85.26c-7.81-7.81-7.82-20.46 0-28.28l95.58-95.58c7.83-7.81 20.48-7.81 28.3 0l85.24 85.25c31.85-19.35 66.11-33.54 102.21-42.37v-120.53c0-11.04 8.97-20 20-20h135.16c11.04 0 20 8.96 20 20v120.53c36.1 8.83 70.34 23.04 102.2 42.39l85.25-85.25c7.82-7.82 20.49-7.82 28.3 0l95.59 95.58c7.81 7.81 7.81 20.46 0 28.28l-85.25 85.24c19.33 31.83 33.54 66.11 42.39 102.22h120.5c11.04 0 20 8.96 20 20v135.17c0 11.04-8.97 20-20 20h-120.53c-8.85 36.11-23.06 70.37-42.39 102.22l85.26 85.26c7.81 7.81 7.81 20.48 0 28.28l-95.59 95.58c-7.82 7.82-20.49 7.82-28.3 0l-85.23-85.23c-31.85 19.33-66.12 33.54-102.22 42.39v120.51c0 11.03-8.96 20-20 20zm-115.17-40.01h95.16v-116.56c0-32.4 46.3-9.75 133.89-68.44 7.93-5.31 18.52-4.29 25.28 2.47l82.45 82.44 67.32-67.29-82.47-82.47c-22.9-22.9 25.81-39.56 46.35-143.02 1.86-9.36 10.08-16.11 19.63-16.11h116.58v-95.18h-116.56c-32.39 0-9.72-46.26-68.44-133.87-5.31-7.93-4.29-18.51 2.47-25.26l82.47-82.47-67.31-67.29-82.47 82.47c-22.91 22.95-39.79-25.97-143.02-46.35-9.37-1.85-16.13-10.07-16.13-19.63v-116.58h-95.17c0 213.2 16.67 84.32-133.89 185.04-7.94 5.31-18.53 4.3-25.28-2.47l-82.45-82.47-67.31 67.29 82.47 82.47c22.91 22.91-25.82 39.57-46.34 143.03-1.87 9.36-10.09 16.13-19.63 16.13l-116.57-.01v95.18h116.56c32.39 0 9.74 46.29 68.44 133.89 5.32 7.93 4.28 18.51-2.47 25.26l-82.44 82.45 67.29 67.31 82.47-82.47c22.91-22.89 39.63 25.84 143.02 46.33 9.37 1.86 16.12 10.08 16.12 19.63l.01 116.56h-.02z"></path></g></g></svg>