<!-- icon666.com - MILLIONS OF FREE VECTOR ICONS --><svg id="Layer_1" enable-background="new 0 0 512 512" viewBox="0 0 512 512" xmlns="http://www.w3.org/2000/svg" xmlns:xlink="http://www.w3.org/1999/xlink"><linearGradient id="SVGID_1_" gradientUnits="userSpaceOnUse" x1="76.652" x2="478.449" y1="435.342" y2="33.545"><stop offset="0" stop-color="#fcc60e"></stop><stop offset="1" stop-color="#e92e29"></stop></linearGradient><path d="m214.871 118.425-7.975 20.718c-11.051 3.001-21.651 7.396-31.608 13.104l-20.303-9.018c-3.026-1.345-6.563-.686-8.904 1.655l-28.381 28.383c-2.34 2.34-2.997 5.879-1.654 8.903l9.017 20.3c-5.709 9.958-10.104 20.558-13.106 31.611l-20.715 7.974c-3.088 1.188-5.126 4.156-5.126 7.466v40.138c0 3.31 2.038 6.277 5.126 7.466l20.712 7.972c3.004 11.061 7.398 21.662 13.107 31.618l-9.015 20.295c-1.343 3.024-.686 6.563 1.655 8.904l28.382 28.381c2.34 2.34 5.877 2.995 8.903 1.654l20.303-9.017c9.959 5.708 20.558 10.103 31.608 13.104l7.974 20.717c1.188 3.089 4.156 5.127 7.466 5.127h40.138c3.31 0 6.277-2.038 7.466-5.126l7.972-20.712c11.059-3.003 21.662-7.398 31.618-13.107l20.295 9.015c3.023 1.344 6.562.687 8.904-1.655l28.381-28.382c2.34-2.34 2.997-5.879 1.654-8.903l-9.017-20.302c5.708-9.96 10.103-20.559 13.104-31.608l20.718-7.975c3.088-1.188 5.126-4.156 5.126-7.466v-40.137c0-3.31-2.038-6.277-5.126-7.466l-20.711-7.973c-3.003-11.057-7.398-21.66-13.107-31.618l9.014-20.295c1.343-3.024.686-6.563-1.655-8.904l-28.382-28.381c-2.34-2.339-5.878-2.994-8.903-1.654l-20.302 9.018c-9.959-5.709-20.558-10.104-31.608-13.104l-7.975-20.718c-1.188-3.088-4.156-5.126-7.466-5.126h-40.137c-3.311-.002-6.279 2.036-7.467 5.124zm42.109 10.874 7.486 19.448c.947 2.462 3.048 4.298 5.614 4.908 12.264 2.919 23.944 7.761 34.716 14.394 2.249 1.384 5.032 1.57 7.441.499l19.061-8.466 20.613 20.613-8.462 19.053c-1.07 2.411-.884 5.195.5 7.442 6.632 10.77 11.475 22.452 14.394 34.725.611 2.566 2.447 4.667 4.909 5.614l19.442 7.484v29.15l-19.448 7.486c-2.462.947-4.298 3.048-4.908 5.614-2.918 12.263-7.761 23.943-14.393 34.716-1.383 2.247-1.569 5.03-.499 7.441l8.465 19.061-20.612 20.613-19.054-8.463c-2.409-1.07-5.194-.884-7.442.5-10.767 6.631-22.449 11.475-34.725 14.396-2.566.61-4.667 2.446-5.614 4.908l-7.483 19.442h-29.151l-7.485-19.447c-.947-2.463-3.048-4.299-5.614-4.909-12.264-2.918-23.944-7.761-34.716-14.393-2.248-1.384-5.032-1.57-7.441-.499l-19.062 8.465-20.613-20.612 8.463-19.054c1.07-2.411.884-5.195-.5-7.442-6.631-10.766-11.474-22.449-14.396-34.725-.61-2.566-2.446-4.667-4.908-5.614l-19.442-7.483v-29.151l19.445-7.485c2.462-.947 4.298-3.048 4.908-5.613 2.92-12.269 7.764-23.95 14.395-34.72 1.384-2.246 1.57-5.03.5-7.441l-8.465-19.059 20.612-20.613 19.062 8.466c2.41 1.071 5.195.885 7.441-.499 10.771-6.632 22.45-11.475 34.716-14.394 2.566-.61 4.667-2.446 5.614-4.908l7.486-19.448h29.15zm-112.195 140.29c0 53.828 43.792 97.62 97.62 97.62s97.621-43.792 97.621-97.62-43.793-97.621-97.621-97.621-97.62 43.793-97.62 97.621zm97.62-81.621c45.006 0 81.621 36.615 81.621 81.621s-36.615 81.62-81.621 81.62-81.62-36.614-81.62-81.62 36.614-81.621 81.62-81.621zm-8 81.62v-33.907c0-4.418 3.582-8 8-8s8 3.582 8 8v29.288l18.64 10.763c3.826 2.209 5.138 7.102 2.928 10.928-1.481 2.566-4.171 4.001-6.936 4.001-1.357 0-2.732-.346-3.992-1.073l-22.64-13.071c-2.476-1.43-4-4.07-4-6.929zm0-63.62v-7.734c0-4.418 3.582-8 8-8s8 3.582 8 8v7.734c0 4.418-3.582 8-8 8s-8-3.582-8-8zm47.329 24.29c-3.124-3.124-3.124-8.189.001-11.313l5.47-5.469c3.124-3.123 8.189-3.123 11.313.001s3.124 8.189-.001 11.313l-5.47 5.469c-1.562 1.562-3.609 2.343-5.656 2.343-2.048 0-4.095-.781-5.657-2.344zm0 89.974c-3.124-3.125-3.124-8.189 0-11.314 3.125-3.123 8.189-3.123 11.314 0l5.47 5.47c3.124 3.125 3.124 8.189 0 11.314-1.562 1.562-3.609 2.343-5.657 2.343s-4.095-.781-5.657-2.343zm-78.659-11.315c3.125 3.124 3.125 8.189.001 11.313l-5.469 5.47c-1.562 1.562-3.61 2.344-5.657 2.344-2.048 0-4.094-.78-5.656-2.343-3.125-3.124-3.125-8.189-.001-11.313l5.469-5.47c3.123-3.125 8.189-3.124 11.313-.001zm-16.783-84.126c-3.124-3.125-3.124-8.189 0-11.314 3.125-3.123 8.189-3.123 11.314 0l5.469 5.469c3.124 3.125 3.124 8.189 0 11.314-1.562 1.562-3.609 2.343-5.657 2.343s-4.095-.781-5.657-2.343zm119.734 36.797h7.734c4.418 0 8 3.582 8 8s-3.582 8-8 8h-7.734c-4.418 0-8-3.582-8-8s3.582-8 8-8zm-71.621 79.356v-7.734c0-4.418 3.582-8 8-8s8 3.582 8 8v7.734c0 4.418-3.582 8-8 8s-8-3.582-8-8zm-71.355-71.356c0-4.418 3.582-8 8-8h7.734c4.418 0 8 3.582 8 8s-3.582 8-8 8h-7.734c-4.418 0-8-3.582-8-8zm338.266-205.212-44.5-52.412c-2.138-2.518-5.258-3.964-8.563-3.964-.001 0-.001 0-.002 0-3.304 0-6.425 1.444-8.562 3.962l-44.502 52.414c-2.867 3.377-3.493 7.971-1.634 11.988s5.767 6.514 10.196 6.514h15.938v186.71c0 97.754-79.528 177.282-177.282 177.282-97.753 0-177.281-79.528-177.281-177.282 0-97.753 79.528-177.281 177.281-177.281 4.418 0 8-3.582 8-8v-41.129c0-4.418-3.582-8-8-8-62.613 0-121.479 24.383-165.753 68.657s-68.657 103.14-68.657 165.753 24.383 121.479 68.657 165.754 103.139 68.658 165.753 68.658 121.479-24.383 165.754-68.657 68.657-103.141 68.657-165.754v-186.711h15.938c4.43 0 8.336-2.495 10.195-6.513 1.859-4.016 1.234-8.61-1.633-11.989zm-32.5 2.502c-4.418 0-8 3.582-8 8v194.71c0 120.433-97.979 218.412-218.411 218.412s-218.41-97.979-218.41-218.411c0-117.756 93.666-214.045 210.41-218.266v25.147c-102.88 4.21-185.281 89.223-185.281 193.118 0 106.576 86.706 193.282 193.281 193.282 106.576 0 193.282-86.706 193.282-193.282v-194.71c0-4.418-3.582-8-8-8h-13.635l34.199-40.28 34.199 40.28z" fill="url(#SVGID_1_)"></path></svg>