<!-- icon666.com - MILLIONS OF FREE VECTOR ICONS --><svg id="Layer_1" viewBox="0 0 512 512" xmlns="http://www.w3.org/2000/svg" xmlns:xlink="http://www.w3.org/1999/xlink" data-name="Layer 1"><linearGradient id="GradientFill_1" gradientUnits="userSpaceOnUse" x1="95.42" x2="425.286" y1="433.139" y2="103.273"><stop offset="0" stop-color="#e81e25"></stop><stop offset=".108" stop-color="#ea3522"></stop><stop offset=".416" stop-color="#f1711c"></stop><stop offset=".678" stop-color="#f59d17"></stop><stop offset=".881" stop-color="#f8b814"></stop><stop offset="1" stop-color="#f9c213"></stop></linearGradient><path d="m316.4 184.544c0-84.751-68.95-153.7-153.7-153.7s-153.7 68.949-153.7 153.7 68.95 153.7 153.7 153.7 153.7-68.944 153.7-153.7zm-293.4 0c0-77.031 62.669-139.7 139.7-139.7s139.7 62.669 139.7 139.7-62.67 139.7-139.7 139.7-139.7-62.668-139.7-139.7zm263.706 0a124.006 124.006 0 1 0 -124.006 124 124.146 124.146 0 0 0 124.006-124zm-234.011 0a110.006 110.006 0 1 1 110.005 110 110.13 110.13 0 0 1 -110-110zm103.9-80.425v-14.275a7 7 0 0 1 14 0v14.275a7 7 0 0 1 -14 0zm58.658 29.136a7 7 0 0 1 0-9.9l10.094-10.093a7 7 0 0 1 9.9 9.9l-10.095 10.094a7 7 0 0 1 -9.9 0zm20.876 52.181a7 7 0 0 1 7-7h14.271a7 7 0 0 1 0 14h-14.274a7 7 0 0 1 -7-7zm-2.143 61.752a7 7 0 0 1 -9.9 9.9l-10.096-10.094a7 7 0 0 1 9.9-9.9zm-72.174 39.057a7 7 0 0 1 -7-7v-14.275a7 7 0 0 1 14 0v14.275a7 7 0 0 1 -7.003 7zm-51.662-50.411a7 7 0 0 1 0 9.9l-10.094 10.094a7 7 0 0 1 -9.9-9.9l10.094-10.094a7 7 0 0 1 9.9 0zm-20.876-52.181a7 7 0 0 1 -7 7h-14.274a7 7 0 0 1 0-14h14.274a7 7 0 0 1 7 7zm22.137-61.553a7 7 0 0 1 -9.9 9.9l-10.094-10.1a7 7 0 1 1 9.9-9.9zm70.829 71.1h23.16a7 7 0 0 0 0-14h-24.5a20.1 20.1 0 0 0 -10.048-9.587v-47.65a7 7 0 1 0 -14 0v46.982a19.995 19.995 0 1 0 25.388 24.255zm-25.287-5.216a6 6 0 1 1 6 6 6.008 6.008 0 0 1 -6-6.001zm140.438 280.128a7 7 0 0 1 -7 7h-150.1a7 7 0 0 1 -7-7v-82.35l-2.115 2.15a7 7 0 1 1 -9.979-9.819l14.112-14.344a7 7 0 0 1 4.946-2.091h.043a7 7 0 0 1 4.93 2.03l14.163 14.048a7 7 0 0 1 -9.859 9.94l-2.241-2.223v75.659h143.1a7 7 0 0 1 7 7zm35.984-304.258a7 7 0 0 1 7-7h135.594a7 7 0 0 1 7 7v96.287l1.5-1.615a7 7 0 0 1 10.26 9.526l-13.63 14.68a7 7 0 0 1 -5 2.236h-.128a7.006 7.006 0 0 1 -4.953-2.053l-13.653-13.672a7 7 0 0 1 9.906-9.892l1.7 1.7v-90.2h-128.596a7 7 0 0 1 -7-6.997zm154.5 194.082h-11.427q-1.092-2.982-2.434-5.869l8.081-8.081a15.143 15.143 0 0 0 0-21.392l-15.21-15.21a15.143 15.143 0 0 0 -21.391 0l-8.081 8.081q-2.883-1.341-5.87-2.434v-11.426a15.144 15.144 0 0 0 -15.126-15.126h-21.511a15.143 15.143 0 0 0 -15.126 15.126v11.426q-2.982 1.092-5.869 2.434l-8.082-8.082a15.145 15.145 0 0 0 -21.391 0l-15.211 15.217a15.145 15.145 0 0 0 0 21.391l8.081 8.081q-1.341 2.881-2.434 5.869h-11.425a15.144 15.144 0 0 0 -15.126 15.126v21.511a15.143 15.143 0 0 0 15.126 15.122h11.426q1.09 2.983 2.434 5.87l-8.082 8.081a15.145 15.145 0 0 0 0 21.391l15.21 15.211a15.146 15.146 0 0 0 21.392 0l8.081-8.082q2.883 1.341 5.869 2.434v11.425a15.142 15.142 0 0 0 15.126 15.126h21.511a15.143 15.143 0 0 0 15.126-15.126v-11.425q2.983-1.092 5.87-2.435l8.081 8.081a15.148 15.148 0 0 0 21.391 0l15.21-15.209a15.149 15.149 0 0 0 0-21.392l-8.081-8.082q1.341-2.881 2.434-5.869h11.426a15.143 15.143 0 0 0 15.127-15.126v-21.511a15.144 15.144 0 0 0 -15.126-15.126zm1.125 36.637a1.155 1.155 0 0 1 -1.126 1.126h-16.5a7 7 0 0 0 -6.728 5.069 61.123 61.123 0 0 1 -5.293 12.762 7 7 0 0 0 1.171 8.346l11.676 11.674a1.15 1.15 0 0 1 0 1.592l-15.211 15.21a1.155 1.155 0 0 1 -1.592 0l-11.677-11.673a7 7 0 0 0 -8.345-1.171 61.148 61.148 0 0 1 -12.763 5.294 7 7 0 0 0 -5.069 6.728v16.5a1.155 1.155 0 0 1 -1.126 1.126h-21.511a1.155 1.155 0 0 1 -1.126-1.126v-16.5a7 7 0 0 0 -5.069-6.728 61.091 61.091 0 0 1 -12.763-5.293 7 7 0 0 0 -8.345 1.171l-11.672 11.673a1.158 1.158 0 0 1 -1.594 0l-15.21-15.211a1.157 1.157 0 0 1 0-1.593l11.673-11.673a7 7 0 0 0 1.171-8.346 61.075 61.075 0 0 1 -5.293-12.761 7 7 0 0 0 -6.728-5.07h-16.5a1.155 1.155 0 0 1 -1.126-1.126v-21.511a1.155 1.155 0 0 1 1.126-1.126h16.5a7 7 0 0 0 6.728-5.069 61.083 61.083 0 0 1 5.293-12.762 7 7 0 0 0 -1.171-8.346l-11.673-11.672a1.157 1.157 0 0 1 0-1.593l15.21-15.21a1.156 1.156 0 0 1 1.593 0l11.67 11.672a7 7 0 0 0 8.345 1.172 61.108 61.108 0 0 1 12.763-5.294 7 7 0 0 0 5.069-6.728v-16.5a1.155 1.155 0 0 1 1.126-1.126h21.511a1.155 1.155 0 0 1 1.126 1.126v16.5a7 7 0 0 0 5.069 6.728 61.076 61.076 0 0 1 12.763 5.294 7 7 0 0 0 8.345-1.171l11.673-11.674a1.15 1.15 0 0 1 1.592 0l15.218 15.211a1.155 1.155 0 0 1 0 1.592l-11.673 11.673a7 7 0 0 0 -1.171 8.346 61.105 61.105 0 0 1 5.293 12.762 7 7 0 0 0 6.728 5.069h16.5a1.155 1.155 0 0 1 1.123 1.126zm-83.338-64.406a53.651 53.651 0 1 0 53.65 53.651 53.712 53.712 0 0 0 -53.65-53.651zm0 93.3a39.651 39.651 0 1 1 39.65-39.65 39.7 39.7 0 0 1 -39.65 39.651z" fill="url(#GradientFill_1)"></path></svg>