<!-- icon666.com - MILLIONS OF FREE VECTOR ICONS --><svg id="Layer_1" enable-background="new 0 0 512 512" viewBox="0 0 512 512" xmlns="http://www.w3.org/2000/svg" xmlns:xlink="http://www.w3.org/1999/xlink"><linearGradient id="SVGID_1_" gradientUnits="userSpaceOnUse" x1="115.96" x2="388.258" y1="531.322" y2="59.688"><stop offset="0" stop-color="#fdc70c"></stop><stop offset="1" stop-color="#ed683c"></stop></linearGradient><path clip-rule="evenodd" d="m220.137 460.998-6.074-22.65c-1.948-7.258-9.427-11.577-16.689-9.639l-1.707.462 3.848-29.464c1.929-14.789-1.702-28.285-10.79-40.126-.221-.283-.453-.552-.712-.802l-70.048-69.501c-10.323-10.243-25.3-12.982-38.132-8.257v-95.036c0-8.937-3.49-17.354-9.851-23.702-6.347-6.357-14.76-9.851-23.696-9.851-18.5.004-33.553 15.052-33.553 33.552v157.473c0 14.133 5.291 26.984 15.699 38.184l38.103 40.98c9.941 10.7 13.61 22.23 11.926 37.948l-3.669.99c-7.248 1.938-11.577 9.432-9.629 16.689l6.074 22.65c1.627 6.083 7.149 10.101 13.157 10.101 1.17 0 2.348-.151 3.532-.457l122.572-32.85c7.257-1.943 11.586-9.432 9.639-16.694zm-36.481-63.37-4.711 36.024-84.129 22.537c.651-17.599-4.631-31.629-16.562-44.46l-38.098-40.98c-7.682-8.257-11.422-17.189-11.422-27.29v-157.474c0-9.677 7.88-17.552 17.552-17.552 4.659 0 9.059 1.834 12.388 5.164 3.329 3.325 5.159 7.729 5.159 12.388v106.736c-11.139 14.26-10.111 34.986 3.051 48.049l37.419 37.118c3.131 3.112 8.201 3.093 11.313-.038 3.108-3.141 3.089-8.21-.042-11.323l-37.419-37.117c-7.932-7.87-7.979-20.73-.123-28.657 7.871-7.932 20.735-7.984 28.663-.113l69.661 69.1c6.267 8.36 8.658 17.49 7.3 27.888zm71.486-306.712c-63.045 0-114.348 51.298-114.348 114.348s51.303 114.348 114.348 114.348c63.054 0 114.352-51.298 114.352-114.348s-51.298-114.348-114.352-114.348zm13.661 117.766-5.659 3.273v6.536c0 4.419-3.579 7.998-8.002 7.998-3.556 0-6.564-2.32-7.606-5.527l-36.151 20.872c-1.259.726-2.641 1.075-3.99 1.075-2.768 0-5.461-1.438-6.941-4.004-2.212-3.825-.901-8.719 2.933-10.926l43.758-25.262v-73.641c0-4.419 3.579-8.003 7.998-8.003 4.424 0 8.002 3.584 8.002 8.003v64.856c3.301-.698 6.81.745 8.588 3.824 2.21 3.824.9 8.719-2.93 10.926zm5.659-148.777v-14.02h8.201c8.13 0 14.751-6.612 14.751-14.746v-15.392c0-8.13-6.621-14.746-14.751-14.746h-55.91c-8.13 0-14.737 6.616-14.737 14.746v15.392c0 8.135 6.607 14.746 14.737 14.746h8.21v14.143c-71.34 9.861-126.448 71.227-126.448 145.236 0 80.852 65.771 146.627 146.627 146.627 80.851 0 146.631-65.775 146.631-146.627 0-74.307-55.556-135.871-127.311-145.359zm-19.32 275.985c-72.028 0-130.626-58.598-130.626-130.626 0-72.033 58.598-130.631 130.626-130.631 72.033 0 130.631 58.598 130.631 130.631 0 72.028-58.598 130.626-130.631 130.626zm210.572-183.457c-8.931 0-17.349 3.499-23.701 9.851-6.347 6.348-9.846 14.765-9.846 23.702v95.036c-12.822-4.725-27.804-1.985-38.132 8.257l-70.047 69.501c-.255.25-.491.519-.703.802-9.101 11.842-12.733 25.338-10.799 40.126l3.848 29.464-1.707-.462c-7.253-1.938-14.741 2.381-16.694 9.639l-6.069 22.65c-1.938 7.262 2.382 14.751 9.639 16.694l122.581 32.85c1.174.306 2.363.457 3.523.457 6.017 0 11.54-4.017 13.171-10.101l6.069-22.65c1.938-7.258-2.381-14.751-9.639-16.689l-3.674-.99c-1.67-15.718 1.999-27.248 11.94-37.948l38.089-40.98c10.422-11.2 15.703-24.05 15.703-38.184v-157.473c.001-18.5-15.052-33.548-33.552-33.552zm17.552 191.025c0 10.101-3.73 19.033-11.422 27.29l-38.089 40.98c-11.931 12.831-17.212 26.861-16.571 44.46l-84.119-22.537-4.711-36.024c-1.358-10.398 1.028-19.528 7.3-27.889l69.652-69.1c7.927-7.871 20.792-7.819 28.657.113 7.871 7.927 7.824 20.787-.108 28.657l-37.419 37.118c-3.141 3.113-3.16 8.182-.052 11.323 3.112 3.131 8.182 3.15 11.323.038l37.419-37.127c13.157-13.053 14.18-33.779 3.042-48.04v-106.735c0-4.659 1.83-9.064 5.159-12.388 3.329-3.33 7.729-5.164 12.388-5.164 9.681 0 17.552 7.875 17.552 17.552v157.473z" fill="url(#SVGID_1_)" fill-rule="evenodd"></path></svg>